<svg width="141" height="36" viewBox="0 0 141 36" fill="none" xmlns="http://www.w3.org/2000/svg">
<path fill-rule="evenodd" clip-rule="evenodd" d="M12.78 25.69C11.8933 26.8567 10.4817 27.44 8.545 27.44C6.60833 27.44 4.79418 26.5475 3.1025 24.7625C1.41083 22.9775 0.565002 20.895 0.565002 18.515C0.565002 16.135 1.41666 14.0467 3.12 12.25C4.82334 10.4533 6.68999 9.55501 8.72 9.55501C9.51334 9.55501 10.2367 9.70084 10.89 9.99251C11.5433 10.2842 11.9925 10.5525 12.2375 10.7975C12.4825 11.0425 12.675 11.27 12.815 11.48C12.885 10.8267 13.1242 10.3308 13.5325 9.99251C13.9408 9.65417 14.6 9.48501 15.51 9.48501C16.42 9.48501 17.085 9.55501 17.505 9.69501C17.925 9.83501 18.2225 10.0742 18.3975 10.4125C18.5725 10.7508 18.6775 11.0483 18.7125 11.305C18.7475 11.5617 18.765 11.9583 18.765 12.495V26.985C18.765 29.6684 17.8317 31.8325 15.965 33.4775C14.0983 35.1225 11.9983 35.945 9.665 35.945C7.89166 35.945 6.20001 35.5133 4.59 34.65C2.97999 33.7867 2.175 33.005 2.175 32.305C2.175 31.395 2.525 30.59 3.225 29.89C3.66834 29.4 4.0125 29.0617 4.2575 28.875C4.5025 28.6883 4.78833 28.595 5.115 28.595C5.44167 28.595 5.78 28.735 6.13 29.015C7.25001 29.8783 8.46333 30.31 9.77 30.31C10.6567 30.31 11.38 29.96 11.94 29.26C12.5 28.56 12.78 27.72 12.78 26.74V25.69ZM6.55 18.55C6.55 19.2967 6.8475 19.9733 7.4425 20.58C8.03751 21.1867 8.76083 21.49 9.6125 21.49C10.4642 21.49 11.17 21.1808 11.73 20.5625C12.29 19.9442 12.57 19.2675 12.57 18.5325C12.57 17.7975 12.3017 17.1092 11.765 16.4675C11.2283 15.8258 10.505 15.505 9.595 15.505C8.685 15.505 7.95001 15.82 7.39 16.45C6.83 17.08 6.55 17.78 6.55 18.55ZM21.04 18.795C21.04 15.995 22.02 13.685 23.98 11.865C25.94 10.045 28.18 9.13501 30.7 9.13501C33.22 9.13501 35.4483 10.0392 37.385 11.8475C39.3217 13.6558 40.29 15.96 40.29 18.76C40.29 20.6967 39.7883 22.4175 38.785 23.9225C37.7817 25.4275 36.5625 26.5358 35.1275 27.2475C33.6925 27.9592 32.205 28.315 30.665 28.315C29.125 28.315 27.6317 27.9358 26.185 27.1775C24.7383 26.4192 23.5192 25.2992 22.5275 23.8175C21.5358 22.3358 21.04 20.6617 21.04 18.795ZM28.355 21.315C29.1017 21.875 29.86 22.155 30.63 22.155C31.4 22.155 32.17 21.8633 32.94 21.28C33.71 20.6967 34.095 19.8333 34.095 18.69C34.095 17.5467 33.7333 16.695 33.01 16.135C32.2867 15.575 31.505 15.295 30.665 15.295C29.825 15.295 29.0433 15.5867 28.32 16.17C27.5967 16.7533 27.235 17.6108 27.235 18.7425C27.235 19.8742 27.6083 20.7317 28.355 21.315ZM45.68 2.31001L52.155 2.34501C55.5384 2.34501 58.5133 3.56416 61.08 6.00251C63.6467 8.44085 64.93 11.4392 64.93 14.9975C64.93 18.5559 63.6758 21.6067 61.1675 24.15C58.6592 26.6934 55.62 27.965 52.05 27.965H45.645C44.2217 27.965 43.335 27.6733 42.985 27.09C42.705 26.6 42.565 25.8533 42.565 24.85V5.39001C42.565 4.83 42.5825 4.42168 42.6175 4.16501C42.6525 3.90834 42.7633 3.60501 42.95 3.25501C43.2767 2.625 44.1867 2.31001 45.68 2.31001ZM52.155 21.77C53.835 21.77 55.3517 21.1458 56.705 19.8975C58.0583 18.6492 58.735 17.08 58.735 15.19C58.735 13.3 58.0758 11.7192 56.7575 10.4475C55.4392 9.17583 53.8933 8.54001 52.12 8.54001H48.76V21.77H52.155ZM75.395 27.93C73.0383 27.93 71.0842 27.0375 69.5325 25.2525C67.9808 23.4675 67.205 21.2917 67.205 18.725V12.6C67.205 12.04 67.2225 11.6317 67.2575 11.375C67.2925 11.1183 67.3917 10.815 67.555 10.465C67.8817 9.835 68.7917 9.52001 70.285 9.52001C71.9183 9.52001 72.875 9.96334 73.155 10.85C73.295 11.2233 73.365 11.8183 73.365 12.635V18.76C73.365 19.7167 73.6392 20.4633 74.1875 21C74.7358 21.5367 75.4708 21.805 76.3925 21.805C77.3142 21.805 78.0608 21.525 78.6325 20.965C79.2042 20.405 79.49 19.67 79.49 18.76V12.565C79.49 12.0283 79.5075 11.6258 79.5425 11.3575C79.5775 11.0892 79.6883 10.78 79.875 10.43C80.1783 9.82334 81.0767 9.52001 82.57 9.52001C84.04 9.52001 84.9383 9.835 85.265 10.465C85.4283 10.815 85.5275 11.1242 85.5625 11.3925C85.5975 11.6608 85.615 12.0633 85.615 12.6V24.99C85.615 25.5033 85.5975 25.8942 85.5625 26.1625C85.5275 26.4308 85.4167 26.7283 85.23 27.055C84.88 27.6617 83.9817 27.965 82.535 27.965C81.1117 27.965 80.2367 27.685 79.91 27.125C79.6767 26.7283 79.56 26.25 79.56 25.69C79.4667 25.8533 79.2567 26.0867 78.93 26.39C78.6033 26.6933 78.2883 26.95 77.985 27.16C77.1917 27.6733 76.3283 27.93 75.395 27.93ZM99.125 15.75L96.85 15.61V20.44C96.85 21.07 96.9492 21.525 97.1475 21.805C97.3458 22.085 97.7192 22.225 98.2675 22.225C98.8158 22.225 99.2358 22.2425 99.5275 22.2775C99.8192 22.3125 100.128 22.4233 100.455 22.61C100.992 22.9133 101.26 23.695 101.26 24.955C101.26 26.425 100.933 27.3233 100.28 27.65C99.93 27.8133 99.6208 27.9125 99.3525 27.9475C99.0842 27.9825 98.6933 28 98.18 28C95.7533 28 93.91 27.4517 92.65 26.355C91.39 25.2583 90.76 23.4034 90.76 20.79V15.61C90.3167 15.68 89.8383 15.715 89.325 15.715C88.8117 15.715 88.3858 15.5167 88.0475 15.12C87.7092 14.7233 87.54 14.0467 87.54 13.09C87.54 12.1333 87.5983 11.4392 87.715 11.0075C87.8317 10.5758 87.995 10.2667 88.205 10.08C88.5783 9.77667 89.045 9.62501 89.605 9.62501L90.76 9.76501V6.16001C90.76 5.62334 90.7775 5.22668 90.8125 4.97001C90.8475 4.71334 90.9583 4.43334 91.145 4.13001C91.4483 3.54667 92.3467 3.25501 93.84 3.25501C95.4267 3.25501 96.3717 3.68667 96.675 4.55001C96.7917 4.92334 96.85 5.51834 96.85 6.33501V9.76501C97.8767 9.67167 98.6525 9.62501 99.1775 9.62501C99.7025 9.62501 100.099 9.64251 100.368 9.67751C100.636 9.71251 100.945 9.82334 101.295 10.01C101.902 10.3133 102.205 11.2117 102.205 12.705C102.205 14.175 101.89 15.0733 101.26 15.4C100.91 15.5633 100.601 15.6625 100.333 15.6975C100.064 15.7325 99.6617 15.75 99.125 15.75ZM109.905 18.795C109.905 19.775 110.232 20.5392 110.885 21.0875C111.538 21.6358 112.232 21.91 112.968 21.91C113.703 21.91 114.391 21.6942 115.033 21.2625C115.674 20.8308 116.193 20.615 116.59 20.615C117.29 20.615 118.142 21.2333 119.145 22.47C119.682 23.1467 119.95 23.7533 119.95 24.29C119.95 25.1767 119.308 26.005 118.025 26.775C116.695 27.7083 115.062 28.175 113.125 28.175C110.955 28.175 108.867 27.3933 106.86 25.83C105.903 25.0833 105.122 24.0858 104.515 22.8375C103.908 21.5892 103.605 20.2125 103.605 18.7075C103.605 17.2025 103.908 15.8375 104.515 14.6125C105.122 13.3875 105.903 12.4017 106.86 11.655C108.797 10.115 110.862 9.34501 113.055 9.34501C113.942 9.34501 114.805 9.46751 115.645 9.71251C116.485 9.95751 117.103 10.1967 117.5 10.43L118.06 10.78C118.48 11.06 118.807 11.2817 119.04 11.445C119.647 11.9117 119.95 12.4425 119.95 13.0375C119.95 13.6325 119.705 14.3033 119.215 15.05C118.375 16.3333 117.57 16.975 116.8 16.975C116.357 16.975 115.727 16.7183 114.91 16.205C114.49 15.8083 113.889 15.61 113.108 15.61C112.326 15.61 111.597 15.89 110.92 16.45C110.243 17.01 109.905 17.7917 109.905 18.795ZM132.445 9.62501C134.778 9.62501 136.721 10.5117 138.273 12.285C139.824 14.0583 140.6 16.2283 140.6 18.795V24.955C140.6 25.4917 140.583 25.8942 140.548 26.1625C140.513 26.4308 140.402 26.74 140.215 27.09C139.912 27.6967 139.013 28 137.52 28C136.097 28 135.21 27.6967 134.86 27.09C134.673 26.74 134.562 26.425 134.528 26.145C134.493 25.865 134.475 25.445 134.475 24.885V18.76C134.475 17.8033 134.207 17.0567 133.67 16.52C133.133 15.9833 132.451 15.715 131.623 15.715C130.794 15.715 130.065 15.9658 129.435 16.4675C128.805 16.9692 128.443 17.535 128.35 18.165V24.955C128.35 25.4917 128.333 25.8942 128.298 26.1625C128.263 26.4308 128.152 26.74 127.965 27.09C127.662 27.6967 126.763 28 125.27 28C123.8 28 122.902 27.685 122.575 27.055C122.412 26.705 122.313 26.4017 122.278 26.145C122.243 25.8883 122.225 25.48 122.225 24.92V3.99001C122.225 3.45334 122.243 3.05084 122.278 2.78251C122.313 2.51417 122.412 2.21668 122.575 1.89001C122.902 1.26 123.812 0.945007 125.305 0.945007C126.775 0.945007 127.662 1.26 127.965 1.89001C128.152 2.24001 128.263 2.54917 128.298 2.81751C128.333 3.08584 128.35 3.48834 128.35 4.02501V11.76C129.517 10.3367 130.882 9.62501 132.445 9.62501Z" fill="black"/>
</svg>
